<?xml version="1.0" encoding="utf-8"?>
<!-- Generator: Adobe Illustrator 24.0.2, SVG Export Plug-In . SVG Version: 6.00 Build 0)  -->
<svg version="1.1" id="Layer_1" xmlns="http://www.w3.org/2000/svg" xmlns:xlink="http://www.w3.org/1999/xlink" x="0px" y="0px"
	 viewBox="0 0 23.5 23.5" style="enable-background:new 0 0 23.5 23.5;" xml:space="preserve">
<style type="text/css">
	.st0{fill:#FAA71B;}
</style>
<g>
	<g>
		<path class="st0" d="M7.7,15c0,0-2.3-1-1.9,2.6c0,0.1,0.1,0.1,0.2,0.1c0.7,0.1,3.5,0.2,2.6-1.9c0,0-0.4,1.1-1.9,0.9
			C6.7,16.8,6.4,15.4,7.7,15z"/>
		<path class="st0" d="M18.7,4.8c0,0-5.9-0.1-9.1,4.9C9.5,9.7,9.3,9.8,9.2,9.8c-0.3,0-0.7-0.1-1,0.2c-0.3,0.2-2,1.5-3.2,3.5
			c0,0-0.4,0.6,0.3,0.4c0.6-0.2,2-0.6,2.7-0.5c-0.1,0.3-0.1,0.5-0.2,0.8c0,0.1,0,0.2,0.1,0.2l1.4,1.3c0.1,0.1,0.1,0.1,0.2,0.1
			c0.1,0,0.4-0.1,0.8-0.2c0.1,0.6-0.3,2.1-0.5,2.7c-0.3,0.7,0.4,0.3,0.4,0.3c2-1.2,3.3-2.9,3.5-3.2c0.2-0.3,0.2-0.8,0.2-1
			c0-0.3,0.1-0.4,0.2-0.4C16.2,12.4,18.5,9.7,18.7,4.8z M15,7.4c0.6,0,1.2,0.5,1.2,1.2c0,0.6-0.5,1.2-1.2,1.2
			c-0.6,0-1.2-0.5-1.2-1.2C13.8,7.9,14.3,7.4,15,7.4z"/>
	</g>
	<g>
		<path class="st0" d="M11.8,23.5C5.3,23.5,0,18.3,0,11.8S5.3,0,11.8,0s11.8,5.3,11.8,11.8S18.3,23.5,11.8,23.5z M11.8,0.6
			c-6.2,0-11.2,5-11.2,11.2s5,11.2,11.2,11.2s11.2-5,11.2-11.2S17.9,0.6,11.8,0.6z"/>
	</g>
</g>
</svg>
