<?xml version="1.0" encoding="utf-8"?>
<!-- Generator: Adobe Illustrator 24.0.2, SVG Export Plug-In . SVG Version: 6.00 Build 0)  -->
<svg version="1.1" id="Layer_1" xmlns="http://www.w3.org/2000/svg" xmlns:xlink="http://www.w3.org/1999/xlink" x="0px" y="0px"
	 viewBox="0 0 23.5 23.5" style="enable-background:new 0 0 23.5 23.5;" xml:space="preserve">
<style type="text/css">
	.st0{fill:#FAA71B;}
</style>
<g>
	<g>
		<path class="st0" d="M19.2,13.8c-0.5-0.7-2.2,0.5-2.8,0.9c-0.6,0.4-1.2,0.8-1.7,0.9c-0.6,0.1-3.3,0.3-3.6,0.3
			c-0.3,0-0.4-0.1-0.4-0.3c0-0.2,1.2-0.2,2.1-0.3c0.9-0.1,2,0.1,2-0.9c0-1-2.9-0.6-3.6-0.6c-0.8,0-1.3-0.4-2.6-0.4
			c-1.1,0-1.7,0.4-1.8,0.5c-0.1-0.2-0.4-0.4-0.7-0.4l-1.2,0c-0.4,0-0.7,0.4-0.7,0.8l0.1,3C4.3,17.6,4.6,18,5,18l1.2,0
			c0.4,0,0.6-0.3,0.7-0.6c0.8,0.1,5.8,0.4,6.6,0.4c0.9,0,4.3-2.2,4.6-2.4S19.7,14.5,19.2,13.8z M5.6,17.3c-0.3,0-0.5-0.2-0.5-0.5
			s0.2-0.5,0.5-0.5s0.5,0.2,0.5,0.5S5.9,17.3,5.6,17.3z"/>
		<path class="st0" d="M15.3,13.6c0,0,1.2-0.7,1.6-0.7c0,0-0.1-0.6-2,0.4C14.9,13.4,15.2,13.4,15.3,13.6z"/>
		<path class="st0" d="M15.6,14.7c0.3-0.4,2.5-1.4,2.5-1.4c-0.4-0.6-2.6,0.8-2.6,0.8C15.7,14.2,15.6,14.7,15.6,14.7z"/>
		<polygon class="st0" points="9.6,12.6 11.9,11.5 14.2,12.6 13.9,10.1 15.6,8.3 13.1,7.8 11.9,5.6 10.7,7.9 8.2,8.3 10,10 		"/>
	</g>
	<g>
		<path class="st0" d="M11.8,23.5C5.3,23.5,0,18.3,0,11.8C0,5.3,5.3,0,11.8,0c6.5,0,11.8,5.3,11.8,11.8
			C23.5,18.3,18.3,23.5,11.8,23.5z M11.8,0.6c-6.1,0-11.1,5-11.1,11.1s5,11.1,11.1,11.1c6.1,0,11.1-5,11.1-11.1S17.9,0.6,11.8,0.6z"
			/>
	</g>
</g>
</svg>
